<svg xmlns="http://www.w3.org/2000/svg" width="436" height="80" fill="none" viewBox="0 0 436 80"><rect width="239" height="79" x=".5" y=".5" fill="#fff" rx="15.5"/><rect width="239" height="79" x=".5" y=".5" stroke="#e4e9f1" rx="15.5"/><rect width="30" height="30" x="59" y="25" fill="#140064" rx="6.838"/><path fill="#bcf100" d="m79.16 34.048-5.147 3.932-5.146-3.932-3.47-2.65v16.764h3.47v-9.836l5.146 3.991 5.146-3.991v9.836h3.468V31.397z"/><path fill="#140064" d="M113.662 29.632h-5.081l-8.024 9.303v-9.303H96.5v20.294h4.057V40.6l8.289 9.326h5.08l-9.018-10.147zm66.882 20.295-6.054-7.02 5.874-7.02h-4.348l-5.12 6.074V29.632h-4.028v20.294h4.028v-6.088l5.217 6.088zm-56.981-14.536c-1.685 0-3.123.732-4.305 1.735v-7.494h-4.008v13.351c0 4.021 2.647 7.385 7.61 7.385 4.467 0 7.611-3.106 7.611-7.459 0-4.121-2.706-7.518-6.908-7.518m-.703 11.329a3.8 3.8 0 0 1-2.653-1.09 3.87 3.87 0 0 1-1.155-2.641v-.106c0-.762.224-1.506.644-2.139a3.84 3.84 0 0 1 1.716-1.418 3.8 3.8 0 0 1 4.166.835 3.87 3.87 0 0 1 .829 4.195 3.85 3.85 0 0 1-1.408 1.727 3.8 3.8 0 0 1-2.124.649zm36.197-11.352a6.8 6.8 0 0 0-4.679 1.783v-1.34h-4.055v14.115h4.055v-7.912c0-.792.315-1.55.876-2.11a2.994 2.994 0 0 1 4.23 0 2.98 2.98 0 0 1 .876 2.11v7.912h4.081v-9.204a5.4 5.4 0 0 0-1.59-3.781 5.4 5.4 0 0 0-3.794-1.573m-18.772 0c-4.597 0-7.829 3.11-7.829 7.47 0 4.124 2.783 7.53 7.108 7.53a6.3 6.3 0 0 0 2.71-.661 6.3 6.3 0 0 0 2.153-1.758v1.944h3.691v-7.046h-.033l.033-.08c0-4.023-2.718-7.4-7.833-7.4m.087 11.309c-.77 0-1.522-.226-2.162-.65a3.87 3.87 0 0 1-1.433-1.73 3.82 3.82 0 0 1 .844-4.199 3.93 3.93 0 0 1 4.24-.835 3.9 3.9 0 0 1 1.746 1.42 3.83 3.83 0 0 1 .362 3.615 3.88 3.88 0 0 1-2.103 2.089 3.9 3.9 0 0 1-1.488.296z"/><rect width="79" height="79" x="258.5" y=".5" fill="#fff" rx="19.5"/><rect width="79" height="79" x="258.5" y=".5" stroke="#e4e9f1" rx="19.5"/><path fill="#140064" d="M280.205 33h-3.613l-5.707 6.642V33H268v14.49h2.885v-6.658l5.895 6.659h3.613l-6.413-7.245zM328 47.49l-4.333-5.011 4.204-5.013h-3.112l-3.664 4.337V33h-2.883v14.49h2.883v-4.347l3.734 4.348zm-40.696-10.373c-1.213 0-2.248.523-3.099 1.24V33h-2.885v9.544c0 2.875 1.905 5.28 5.478 5.28 3.216 0 5.478-2.221 5.478-5.333 0-2.946-1.947-5.374-4.972-5.374m-.506 8.099a2.75 2.75 0 0 1-2.741-2.668v-.076a2.755 2.755 0 0 1 3.289-2.699 2.752 2.752 0 0 1-.537 5.451zm25.869-8.099a4.84 4.84 0 0 0-3.328 1.27v-.955h-2.883V47.49h2.883v-5.637a2.127 2.127 0 1 1 4.255 0v5.637h2.902v-6.56a3.844 3.844 0 0 0-3.829-3.814m-13.488.001c-3.251 0-5.537 2.22-5.537 5.334 0 2.944 1.968 5.377 5.027 5.377a4.44 4.44 0 0 0 3.439-1.728v1.389h2.61v-5.032h-.023l.023-.057c0-2.872-1.922-5.283-5.539-5.283m.061 8.075a2.75 2.75 0 0 1-2.542-1.699 2.755 2.755 0 0 1 .597-2.998 2.75 2.75 0 0 1 2.998-.597 2.75 2.75 0 0 1 1.699 2.542 2.74 2.74 0 0 1-.803 1.948 2.75 2.75 0 0 1-1.944.809z"/><rect width="80" height="80" x="356" fill="#140064" rx="20"/><path fill="#fff" d="M378.205 33h-3.613l-5.707 6.642V33H366v14.49h2.885v-6.658l5.895 6.659h3.613l-6.413-7.245zM426 47.49l-4.333-5.011 4.204-5.013h-3.112l-3.664 4.337V33h-2.883v14.49h2.883v-4.347l3.734 4.348zm-40.696-10.373c-1.213 0-2.248.523-3.099 1.24V33h-2.885v9.544c0 2.875 1.905 5.28 5.478 5.28 3.216 0 5.478-2.221 5.478-5.333 0-2.946-1.947-5.374-4.972-5.374m-.506 8.099a2.75 2.75 0 0 1-2.741-2.668v-.076a2.755 2.755 0 0 1 3.289-2.699 2.752 2.752 0 0 1-.537 5.451zm25.869-8.099a4.84 4.84 0 0 0-3.328 1.27v-.955h-2.883V47.49h2.883v-5.637a2.127 2.127 0 1 1 4.255 0v5.637h2.902v-6.56a3.844 3.844 0 0 0-3.829-3.814m-13.488.001c-3.251 0-5.537 2.22-5.537 5.334 0 2.944 1.968 5.377 5.027 5.377a4.44 4.44 0 0 0 3.439-1.728v1.389h2.61v-5.032h-.023l.023-.057c0-2.872-1.922-5.283-5.539-5.283m.061 8.075a2.75 2.75 0 0 1-2.542-1.699 2.755 2.755 0 0 1 .597-2.998 2.75 2.75 0 0 1 2.998-.597 2.75 2.75 0 0 1 1.699 2.542 2.74 2.74 0 0 1-.803 1.948 2.75 2.75 0 0 1-1.944.809z"/></svg>